<svg width="30" height="30" viewBox="0 0 20 22" fill="none" xmlns="http://www.w3.org/2000/svg">
<path d="M18.71 18.29L2.71 2.29002C2.61676 2.19679 2.50607 2.12282 2.38425 2.07236C2.26243 2.0219 2.13186 1.99593 2 1.99593C1.86814 1.99593 1.73758 2.0219 1.61575 2.07236C1.49393 2.12282 1.38324 2.19679 1.29 2.29002C1.1017 2.47833 0.995911 2.73372 0.995911 3.00002C0.995911 3.26633 1.1017 3.52172 1.29 3.71002L17.29 19.71C17.383 19.8038 17.4936 19.8781 17.6154 19.9289C17.7373 19.9797 17.868 20.0058 18 20.0058C18.132 20.0058 18.2627 19.9797 18.3846 19.9289C18.5064 19.8781 18.617 19.8038 18.71 19.71C18.8037 19.6171 18.8781 19.5065 18.9289 19.3846C18.9797 19.2627 19.0058 19.132 19.0058 19C19.0058 18.868 18.9797 18.7373 18.9289 18.6154C18.8781 18.4936 18.8037 18.383 18.71 18.29V18.29ZM10.54 17.06L10.81 14.64L8 11.8H4.87L6.11 9.94002L4.67 8.50002L2.17 12.24C2.06827 12.3905 2.00946 12.5659 1.99988 12.7473C1.99031 12.9288 2.03034 13.1093 2.11567 13.2697C2.201 13.4301 2.32841 13.5642 2.48422 13.6576C2.64002 13.7511 2.81833 13.8003 3 13.8H8.89L8.12 20.89C8.09516 21.1125 8.14571 21.337 8.26356 21.5273C8.38141 21.7177 8.55975 21.863 8.77 21.94C8.879 21.9796 8.99405 21.9999 9.11 22C9.27381 22.0003 9.43516 21.9603 9.57989 21.8836C9.72461 21.8068 9.84827 21.6957 9.94 21.56L13.06 16.89L11.62 15.45L10.54 17.06ZM9.46 4.94002L9.19 7.36002L12 10.2H15.1L13.86 12.06L15.3 13.5L17.8 9.76002C17.9004 9.61162 17.9591 9.43896 17.9699 9.2601C17.9808 9.08124 17.9434 8.90275 17.8616 8.74331C17.7798 8.58387 17.6567 8.44932 17.5052 8.35375C17.3536 8.25817 17.1791 8.20508 17 8.20002H11.11L11.88 1.11002C11.8934 0.895635 11.8375 0.682619 11.7204 0.502514C11.6033 0.322408 11.4314 0.184787 11.23 0.110024C11.0205 0.0339263 10.7916 0.0299875 10.5797 0.098833C10.3677 0.167678 10.1848 0.305362 10.06 0.490024L6.94 5.11002L8.38 6.55002L9.46 4.94002Z" fill="black"/>
</svg>
