<svg width="30" height="30" viewBox="0 0 18 22" fill="none" xmlns="http://www.w3.org/2000/svg">
<path d="M8.11 22C7.99404 21.9998 7.879 21.9795 7.77 21.94C7.55974 21.863 7.38141 21.7177 7.26356 21.5273C7.1457 21.3369 7.09515 21.1125 7.12 20.89L7.89 13.8H2C1.81833 13.8002 1.64002 13.751 1.48421 13.6576C1.32841 13.5642 1.201 13.4301 1.11567 13.2697C1.03034 13.1093 0.990307 12.9287 0.999879 12.7473C1.00945 12.5659 1.06826 12.3905 1.17 12.24L9.06 0.439975C9.18478 0.255313 9.36768 0.11763 9.57965 0.0487842C9.79163 -0.0200612 10.0205 -0.0161226 10.23 0.059975C10.4314 0.134738 10.6033 0.27236 10.7204 0.452465C10.8375 0.63257 10.8934 0.845586 10.88 1.05998L10.11 8.19998H16C16.1817 8.1997 16.36 8.24892 16.5158 8.34235C16.6716 8.43578 16.799 8.56989 16.8843 8.73027C16.9697 8.89065 17.0097 9.07125 17.0001 9.25266C16.9905 9.43408 16.9317 9.60946 16.83 9.75998L8.94 21.56C8.84827 21.6957 8.72461 21.8068 8.57988 21.8835C8.43516 21.9602 8.2738 22.0002 8.11 22V22ZM3.87 11.8H9C9.13954 11.8003 9.27747 11.8298 9.40492 11.8867C9.53236 11.9435 9.6465 12.0264 9.74 12.13C9.83437 12.235 9.90543 12.3588 9.94852 12.4932C9.99161 12.6276 10.0057 12.7697 9.99 12.91L9.54 17.06L14.13 10.2H9C8.85888 10.2008 8.71919 10.1718 8.59009 10.1148C8.46099 10.0578 8.34542 9.97417 8.25097 9.86933C8.15651 9.76448 8.08532 9.64084 8.04206 9.50651C7.99881 9.37219 7.98447 9.23023 8 9.08998L8.45 4.93998L3.87 11.8Z" fill="black"/>
</svg>
